<svg width="52" height="54" viewBox="0 0 52 54" fill="none" xmlns="http://www.w3.org/2000/svg">
<path d="M50.9818 15.0862C49.9929 14.24 48.7526 14.3175 47.5487 14.5211V12.6192C47.5487 11.7815 47.1401 10.9807 46.4557 10.4771C44.6218 9.12807 40.9146 8.62535 36.2857 9.09808C30.5188 9.68645 27.2748 12.0766 26.0002 13.2514C24.7255 12.0766 21.4815 9.68645 15.7146 9.09819C11.0854 8.62535 7.37849 9.12807 5.54467 10.4772C4.86019 10.9808 4.45167 11.7815 4.45167 12.6193V14.5212C2.41174 14.1965 0 14.7921 0 17.2787V43.7782C0 45.2385 1.12074 46.4827 2.60748 46.6724L9.90414 47.5978L8.11176 51.3962C7.58081 52.5204 8.46026 53.8704 9.73788 53.8704H13.9018C14.5987 53.8704 15.2372 53.4715 15.5282 52.8543L17.5506 48.5676L24.5817 49.4594C25.0522 49.519 25.526 49.5489 25.9999 49.5487C26.4738 49.5487 26.9477 49.519 27.4183 49.4593L40.4142 47.811L42.4173 52.0559C42.4539 52.1898 42.4023 52.2685 42.2621 52.292H38.0981C38.0318 52.292 37.9709 52.2539 37.943 52.1949L37.323 50.8807C37.1364 50.4847 36.6556 50.3112 36.2491 50.4933C35.8428 50.6753 35.6648 51.1439 35.8516 51.5398L36.4716 52.8541C36.7628 53.4714 37.4012 53.8702 38.098 53.8702H42.262C43.5319 53.8702 44.4223 52.5271 43.8883 51.3961L42.0959 47.5975L49.3932 46.672C50.8794 46.4824 52 45.2382 52 43.7779V17.2786C52.0003 16.4393 51.6292 15.6401 50.9818 15.0862ZM7.62778 36.6193C8.79516 35.5628 11.233 34.1059 15.5458 34.5463C18.3862 34.8361 20.8868 35.86 22.978 37.5898C23.453 37.9827 23.852 38.3697 24.1778 38.7188L7.62778 36.6193ZM27.8223 38.7188C28.1482 38.3697 28.5471 37.9827 29.0221 37.5898C31.1133 35.86 33.6139 34.8361 36.4544 34.5462C36.9964 34.4909 37.5083 34.4655 37.9924 34.4655C41.3612 34.4655 43.3532 35.6965 44.3728 36.6192L27.8223 38.7188ZM36.4544 10.6678C41.3574 10.1674 44.3312 10.8918 45.48 11.7368C45.7613 11.9437 45.9292 12.2737 45.9292 12.6192V35.9136C44.6968 34.6063 41.768 32.4174 36.2857 32.9766C31.5045 33.4644 28.4548 35.7528 26.8099 37.4517V14.6956C27.5379 13.9536 30.5452 11.2706 36.4544 10.6678ZM6.52009 11.7368C7.40732 11.0841 9.38322 10.5033 12.4961 10.5033C13.4133 10.5033 14.4299 10.5538 15.5458 10.6678C21.4583 11.2709 24.4656 13.9567 25.1903 14.6954V37.4517C23.5455 35.7527 20.4957 33.4644 15.7145 32.9766C10.2319 32.4164 7.30335 34.6055 6.07098 35.9132V12.6192C6.07087 12.2736 6.23886 11.9437 6.52009 11.7368ZM2.08689 16.2722C2.72094 15.7295 3.70598 16.0181 4.45145 16.1126V36.3336C4.45145 37.1741 5.0963 37.8896 5.95157 37.9981L25.1903 40.4392V42.8075C25.1903 43.2433 25.5528 43.5966 26.0001 43.5966C26.4473 43.5966 26.8098 43.2433 26.8098 42.8075V40.4392L46.0485 37.9981C46.9038 37.8896 47.5487 37.174 47.5487 36.3336V16.1126C48.6026 15.9791 50.3809 15.6748 50.3809 17.2786V40.5785C50.3809 41.2492 49.8659 41.8206 49.1838 41.9077L27.2097 44.6949C26.4069 44.7965 25.5929 44.7965 24.7907 44.6949L2.81692 41.9078C2.13417 41.8206 1.6192 41.2492 1.6192 40.5785V17.2786C1.6192 16.8876 1.78524 16.5302 2.08689 16.2722ZM14.0568 52.1952C14.029 52.2542 13.9682 52.2921 13.9018 52.2921H9.73788C9.59774 52.2685 9.54614 52.1898 9.58284 52.0558L11.5857 47.8111L15.8688 48.3543L14.0568 52.1952ZM49.1838 45.1072L27.2097 47.8943C26.407 47.9959 25.593 47.9959 24.7907 47.8943L2.81692 45.1072C1.85067 44.9839 1.49969 44.0019 1.6192 43.1689C1.92117 43.322 2.25369 43.4274 2.60726 43.4726L24.5818 46.2597C25.0523 46.3193 25.5261 46.3492 26.0001 46.349C26.4739 46.349 26.9478 46.3193 27.4184 46.2596L49.3935 43.4725C49.7469 43.4273 50.079 43.3221 50.3809 43.169C50.4811 44.0056 50.1795 44.9802 49.1838 45.1072Z" fill="#184D47"/>
<path d="M9.47372 20.9851C9.50719 20.9734 12.847 19.8001 16.2233 20.2238C20.3927 20.747 22.2686 22.5175 22.2837 22.5319C22.4422 22.6887 22.6512 22.7673 22.8606 22.7673C23.0657 22.7673 23.2712 22.6917 23.4288 22.5403C23.7474 22.2345 23.7513 21.7349 23.4374 21.4244C23.3484 21.3362 21.199 19.257 16.4303 18.6585C12.6652 18.1858 9.06822 19.4492 8.91697 19.5032C8.497 19.6531 8.28129 20.1063 8.43514 20.5156C8.58877 20.9248 9.05397 21.1351 9.47372 20.9851Z" fill="#184D47"/>
<path d="M14.1887 15.8827C14.8995 15.8579 15.5842 15.8858 16.2232 15.9661C17.0174 16.0658 17.7839 16.2176 18.5014 16.4173C18.5757 16.438 18.6505 16.4479 18.7241 16.4479C19.0765 16.4479 19.4007 16.2219 19.5023 15.8753C19.6252 15.4563 19.3761 15.0194 18.9461 14.8998C18.1511 14.6784 17.3046 14.5106 16.4301 14.4009C15.7035 14.3097 14.9297 14.2776 14.1305 14.3056C13.6836 14.3213 13.3344 14.687 13.3504 15.1227C13.3665 15.558 13.7394 15.8979 14.1887 15.8827Z" fill="#184D47"/>
<path d="M16.4301 22.9163C15.9213 22.8525 15.387 22.8174 14.8421 22.8121C14.8393 22.8121 14.8365 22.8121 14.8337 22.8121C14.3904 22.8121 14.0287 23.1601 14.0242 23.5932C14.0197 24.029 14.3785 24.3857 14.8257 24.3902C15.3072 24.3949 15.7774 24.4257 16.2233 24.4816C20.3926 25.0049 22.2686 26.7752 22.2837 26.7897C22.4422 26.9464 22.6512 27.025 22.8605 27.025C23.0656 27.025 23.2711 26.9495 23.4288 26.7981C23.7473 26.4922 23.7512 25.9926 23.4373 25.6822C23.3483 25.5939 21.1988 23.5148 16.4301 22.9163Z" fill="#184D47"/>
<path d="M10.824 23.2432C9.68387 23.4889 8.94758 23.7499 8.91681 23.7609C8.49717 23.9107 8.28179 24.3634 8.4352 24.7725C8.55504 25.0925 8.86542 25.291 9.196 25.291C9.28809 25.291 9.38169 25.2757 9.47313 25.2431C9.47982 25.2408 10.1476 25.0054 11.1736 24.7843C11.6103 24.6901 11.886 24.269 11.7894 23.8434C11.6928 23.4178 11.2602 23.1491 10.824 23.2432Z" fill="#184D47"/>
<path d="M9.47372 29.5006C9.50719 29.4887 12.847 28.3157 16.2233 28.7393C20.3927 29.2626 22.2686 31.033 22.2837 31.0474C22.4422 31.2042 22.6512 31.2828 22.8606 31.2828C23.0657 31.2828 23.2711 31.2072 23.4289 31.0558C23.7474 30.75 23.7512 30.2503 23.4374 29.9399C23.3483 29.8517 21.1989 27.7725 16.4303 27.174C12.6652 26.7012 9.06822 27.9647 8.91697 28.0187C8.497 28.1686 8.28129 28.6218 8.43514 29.0311C8.58877 29.4403 9.05397 29.6506 9.47372 29.5006Z" fill="#184D47"/>
<path d="M29.367 31.2802C29.5739 31.2802 29.7811 31.2036 29.9394 31.0509C29.9578 31.0332 31.834 29.2627 36.0032 28.7394C39.3658 28.3171 42.72 29.489 42.7535 29.5009C43.1735 29.6502 43.6379 29.4401 43.7915 29.0311C43.9454 28.6218 43.7297 28.1687 43.3097 28.0187C43.1586 27.9647 39.5608 26.7016 35.7963 27.174C31.0277 27.7725 28.8783 29.8517 28.7892 29.94C28.4766 30.2491 28.4807 30.7443 28.796 31.0507C28.9535 31.2038 29.1601 31.2802 29.367 31.2802Z" fill="#184D47"/>
<path d="M27.3793 3.20411H28.2378V4.04078C28.2378 4.47658 28.6002 4.8299 29.0475 4.8299C29.4948 4.8299 29.8572 4.47658 29.8572 4.04078V3.20411H30.7159C31.1631 3.20411 31.5256 2.8508 31.5256 2.415C31.5256 1.9792 31.1631 1.62589 30.7159 1.62589H29.8572V0.789113C29.8572 0.353312 29.4948 0 29.0475 0C28.6002 0 28.2378 0.353312 28.2378 0.789113V1.62589H27.3793C26.932 1.62589 26.5696 1.9792 26.5696 2.415C26.5696 2.8508 26.9321 3.20411 27.3793 3.20411Z" fill="#184D47"/>
<path d="M25.4375 7.90613C25.8851 7.90613 26.2481 7.55249 26.2481 7.11615C26.2481 6.67981 25.8852 6.32617 25.4375 6.32617C24.9898 6.32617 24.627 6.67992 24.627 7.11615C24.627 7.55238 24.9899 7.90613 25.4375 7.90613Z" fill="#184D47"/>
<path d="M34.4234 5.62085C34.871 5.62085 35.2339 5.26716 35.2339 4.83087C35.2339 4.39458 34.871 4.04089 34.4234 4.04089C33.9757 4.04089 33.6128 4.39458 33.6128 4.83087C33.6128 5.26716 33.9757 5.62085 34.4234 5.62085Z" fill="#184D47"/>
<path d="M41.4784 22.403C41.9257 22.403 42.2881 22.0496 42.2881 21.6138V15.139C42.2881 14.7032 41.9257 14.3499 41.4784 14.3499C41.0311 14.3499 40.6687 14.7032 40.6687 15.139V21.6138C40.6687 22.0496 41.0312 22.403 41.4784 22.403Z" fill="#184D47"/>
<path d="M32.5614 21.7715H35.7785C37.2497 21.7715 38.4465 20.6051 38.4465 19.1713V16.8227C38.4465 16.3869 38.0841 16.0336 37.6368 16.0336C37.1895 16.0336 36.8271 16.3869 36.8271 16.8227V19.1713C36.8271 19.7348 36.3567 20.1933 35.7785 20.1933H32.5614C31.9832 20.1933 31.5127 19.7348 31.5127 19.1713V16.8227C31.5127 16.3869 31.1503 16.0336 30.703 16.0336C30.2557 16.0336 29.8933 16.3869 29.8933 16.8227V19.1713C29.8934 20.605 31.0902 21.7715 32.5614 21.7715Z" fill="#184D47"/>
<path d="M33.3591 24.2477C33.3591 24.684 33.7221 25.0377 34.1697 25.0377C34.6173 25.0377 34.9803 24.6841 34.9803 24.2477C34.9803 23.8114 34.6174 23.4578 34.1697 23.4578C33.722 23.4578 33.3591 23.8114 33.3591 24.2477Z" fill="#184D47"/>
</svg>
