<svg width="52" height="47" viewBox="0 0 52 47" fill="none" xmlns="http://www.w3.org/2000/svg">
<path d="M51.9801 38.3084C51.9801 37.1273 50.9198 36.1015 48.8271 35.2527C49.0266 34.7713 49.1374 34.246 49.1374 33.6957V31.4596C49.1374 29.7155 48.3929 28.0247 47.0945 26.8206L40.8192 21.0057C38.7655 19.1037 35.5465 19.1037 33.4906 21.0058L27.2162 26.8208C26.6404 27.3547 26.1743 27.9847 25.833 28.6723L23.3521 28.0876C22.4068 27.8649 21.4254 28.0736 20.6609 28.66C19.8969 29.2462 19.4586 30.1259 19.4586 31.0737V34.0171C19.0414 34.0035 18.637 34.1661 18.3498 34.4717C18.1827 34.6494 18.0685 34.8613 18.012 35.087C15.6338 35.9656 14.429 37.0481 14.429 38.3084C14.429 39.8121 16.1209 41.052 19.4585 41.9993V43.3624C19.4585 45.0688 21.9818 45.7371 23.8798 46.0913C26.2134 46.5268 29.438 46.7571 33.205 46.7571C36.9714 46.7571 40.1957 46.5268 42.5292 46.0913C44.4271 45.7371 46.9504 45.0687 46.9504 43.3624V41.9994C50.2883 41.0519 51.9801 39.812 51.9801 38.3084ZM28.2659 27.8961L31.1304 25.2412L33.4908 27.4282C34.4905 28.354 35.8168 28.8532 37.1662 28.8532C37.6535 28.8532 38.1439 28.788 38.6228 28.6543C39.027 28.5415 39.2609 28.1306 39.1452 27.7367C39.0292 27.3427 38.6078 27.1145 38.2035 27.2276C36.915 27.5873 35.5112 27.2519 34.5401 26.3524L32.2355 24.2172L34.5398 22.082C36.0068 20.7242 38.3043 20.7242 39.7701 22.0817L42.0747 24.2171L40.8192 25.3802C40.5144 25.6626 40.5023 26.1323 40.792 26.4293C41.0818 26.7264 41.5638 26.7381 41.8686 26.4558L43.18 25.2408L46.0452 27.8959C47.0427 28.821 47.6148 30.1199 47.6148 31.4595V33.6956C47.6148 35.1784 46.377 36.3848 44.8553 36.3848H41.6947V35.1762C41.6947 33.1267 39.6971 31.5305 37.6344 31.9318L33.3377 32.7689C32.3102 32.969 31.1859 32.6956 30.1618 32.5655C28.8045 32.393 27.4164 33.0788 26.7543 34.2444C26.3152 32.1805 26.6822 29.3647 28.2659 27.8961ZM19.7049 36.2058L19.5237 35.5196L21.4658 35.8346C21.9441 35.9117 26.3283 35.7982 26.3283 35.8465C26.3283 36.3189 26.3131 36.7934 26.3315 37.2655H21.5909C20.9138 37.2655 20.1908 37.4824 19.5238 37.5905L19.705 36.9041C19.7652 36.6757 19.7652 36.4344 19.7049 36.2058ZM27.8511 37.1409V35.8465C27.8511 34.8688 28.7151 34.0221 29.723 34.0221C31.0599 34.0221 32.2772 34.4888 33.636 34.2243L37.9327 33.3873C39.063 33.1671 40.1716 34.0488 40.1716 35.1763V37.6849C40.1716 38.7157 39.237 39.5738 38.178 39.5055L29.6014 38.9615C28.6199 38.8992 27.8511 38.0995 27.8511 37.1409ZM21.6031 29.8261C21.9984 29.5229 22.5058 29.4151 22.9946 29.5301L25.3312 30.0808C25.2284 30.5312 25.1736 30.9932 25.1736 31.4595C25.1736 32.4064 25.0732 33.4201 25.2276 34.3605H21.6537L20.9816 34.2514V31.0737C20.9816 30.5838 21.208 30.1291 21.6031 29.8261ZM42.243 44.6337C40.0024 45.0519 36.877 45.2729 33.2052 45.2729C29.5328 45.2729 26.4073 45.0519 24.1666 44.6337C21.5668 44.1485 20.9816 43.538 20.9816 43.3624V42.3855C24.3508 43.1467 28.6546 43.5632 33.2052 43.5632C37.7553 43.5632 42.0586 43.1467 45.4277 42.3855V43.3623C45.4277 43.5379 44.8426 44.1484 42.243 44.6337ZM45.753 40.7806C42.4108 41.6179 37.9546 42.0791 33.2052 42.0791C28.4554 42.0791 23.9988 41.618 20.6564 40.7806C16.9429 39.8504 15.952 38.7889 15.952 38.3084C15.952 37.9185 16.5607 37.2677 18.2109 36.6061L18.0167 37.3419C17.7649 38.2963 18.6671 39.2334 19.6476 39.0749L21.6536 38.7496H26.7594C27.3052 39.6997 28.3181 40.3673 29.5024 40.4424L38.079 40.9864C39.9257 41.1028 41.5846 39.6682 41.6888 37.8689H44.8551C46.0961 37.8689 47.2149 37.3513 47.9977 36.5266C49.8011 37.2167 50.4572 37.9058 50.4572 38.3083C50.4572 38.7889 49.4665 39.8504 45.753 40.7806Z" fill="#184D47"/>
<path d="M11.0525 27.7709H9.99927C9.57865 27.7709 9.23783 28.1031 9.23783 28.5129C9.23783 28.9228 9.57865 29.255 9.99927 29.255H11.0525C11.4616 29.2976 11.6711 29.5194 11.6807 29.9203L11.4443 32.6959H1.76127L1.52482 29.9204C1.53457 29.5195 1.74391 29.2976 2.15306 29.255H6.2982C6.71881 29.255 7.05963 28.9228 7.05963 28.5129C7.05963 28.1031 6.71881 27.7709 6.2982 27.7709H2.15306C0.922886 27.7709 -0.0947945 28.8452 0.00703443 30.0431L1.02593 42.0033C1.20888 44.1511 3.08444 45.8336 5.29605 45.8336H7.90949C10.121 45.8336 11.9967 44.1512 12.1796 42.0034L13.1985 30.0431C13.3 28.8485 12.286 27.7709 11.0525 27.7709ZM10.6619 41.8806C10.544 43.265 9.33509 44.3495 7.90959 44.3495H5.29605C3.87055 44.3495 2.66159 43.265 2.54372 41.8805L1.88767 34.1799H11.3179L10.6619 41.8806Z" fill="#184D47"/>
<path d="M16.8684 20.639C22.4098 20.639 27.0817 16.1047 27.096 10.7021C27.0975 10.1893 26.7405 9.74621 26.2279 9.62442C25.7164 9.50301 25.1911 9.73592 24.9508 10.1911C23.9578 12.0719 21.9147 13.2402 19.7442 13.1702C17.484 13.096 15.4948 11.709 14.6764 9.63649C14.5253 9.25398 14.0848 9.06332 13.6924 9.21044C13.2999 9.35767 13.1041 9.78708 13.2551 10.1695C14.2936 12.7992 16.8205 14.5591 19.6931 14.6533C21.9189 14.726 24.0428 13.7704 25.4407 12.1396C24.2324 18.7488 15.6145 21.4434 10.7169 16.6708C5.82483 11.9032 8.57797 3.50683 15.3575 2.32279C14.1243 3.32003 13.2659 4.69522 12.9327 6.25613C12.847 6.65734 13.1113 7.05034 13.523 7.13385C13.9338 7.21745 14.3379 6.95981 14.4235 6.5585C14.7707 4.93249 15.843 3.56214 17.3654 2.7989C18.4951 2.23266 17.9119 0.704199 16.7504 0.70875C7.88568 0.808484 3.38825 11.6276 9.64012 17.7202C11.5755 19.6063 14.1364 20.639 16.8684 20.639Z" fill="#184D47"/>
<path d="M20.5646 6.34816H21.3959V7.15831C21.3959 7.56814 21.7367 7.90039 22.1573 7.90039C22.578 7.90039 22.9188 7.56814 22.9188 7.15831V6.34816H23.75C24.1707 6.34816 24.5115 6.0159 24.5115 5.60608C24.5115 5.19625 24.1707 4.864 23.75 4.864H22.9188V4.05385C22.9188 3.64402 22.578 3.31177 22.1573 3.31177C21.7367 3.31177 21.3959 3.64402 21.3959 4.05385V4.864H20.5646C20.144 4.864 19.8032 5.19625 19.8032 5.60608C19.8032 6.0159 20.144 6.34816 20.5646 6.34816Z" fill="#184D47"/>
<path d="M26.7187 2.87842C27.1462 2.87842 27.4926 2.54072 27.4926 2.12415C27.4926 1.70757 27.1462 1.36987 26.7187 1.36987C26.2913 1.36987 25.9448 1.70757 25.9448 2.12415C25.9448 2.54072 26.2913 2.87842 26.7187 2.87842Z" fill="#184D47"/>
</svg>
