<svg width="53" height="52" viewBox="0 0 53 52" fill="none" xmlns="http://www.w3.org/2000/svg">
<path d="M48.2831 17.0855C46.621 16.0164 44.8689 15.1238 43.174 14.1074C44.1611 13.1864 44.7776 11.891 44.7776 10.4572V3.85656C44.7776 1.73 43.0025 0 40.8205 0H37.389C35.2069 0 33.4318 1.73 33.4318 3.85656V10.4572C33.4318 11.9092 34.064 13.2195 35.0732 14.1425C31.7355 16.0158 27.9519 17.716 26.3656 21.3938C24.7198 17.5781 20.9343 16.1186 17.5808 14.1074C18.568 13.1864 19.1845 11.891 19.1845 10.4572V3.85656C19.1845 1.73 17.4093 0 15.2274 0H11.7958C9.61376 0 7.83861 1.73 7.83861 3.85656V10.4572C7.83861 11.9092 8.47087 13.2195 9.48007 14.1425C4.94931 16.6855 0 19.2484 0 25.1362V38.0459C0 39.2469 1.00251 40.224 2.2349 40.224H21.4793L22.6046 49.3628C22.6052 49.4562 22.5579 49.5082 22.4627 49.5187H4.67526C4.57999 49.5082 4.53272 49.4563 4.53334 49.3628L5.30123 43.1268C5.35211 42.7141 5.04994 42.3392 4.62634 42.2897C4.20315 42.2389 3.81817 42.5344 3.7674 42.9474L2.9995 49.1835C2.88168 50.1394 3.68438 51.0243 4.67526 51.0243H22.4628C23.4506 51.0243 24.2566 50.1423 24.1385 49.1835L23.0354 40.224H24.9031C25.462 40.224 25.9733 40.0225 26.3656 39.6908C26.7579 40.0225 27.2691 40.224 27.8281 40.224H28.6022L27.8655 43.6409C27.5857 44.9379 28.7704 45.6844 29.9457 45.624V49.3794C29.9457 50.2864 30.7028 51.0243 31.6334 51.0243H46.8812C47.8118 51.0243 48.569 50.2864 48.569 49.3794V45.624C49.7443 45.6844 50.9287 44.9379 50.6492 43.641L49.9125 40.224H50.4963C51.7287 40.224 52.7312 39.2469 52.7312 38.0459V25.1362C52.7312 21.8845 51.0683 18.8749 48.2831 17.0855ZM45.6547 33.1378L39.9661 33.1375V25.1238C39.9661 24.708 39.6204 24.371 39.1937 24.371C38.767 24.371 38.4212 24.708 38.4212 25.1238V33.1378H32.6686V17.2295L35.3355 15.7326L37.4256 18.2319C37.6918 18.55 38.0363 18.7841 38.4211 18.9174V21.5752C38.4211 21.991 38.7669 22.328 39.1936 22.328C39.6203 22.328 39.966 21.991 39.966 21.5752V18.9087C40.3487 18.7714 40.6901 18.5343 40.9522 18.214L42.981 15.7352L45.6546 17.2303L45.6547 33.1378ZM43.44 35.3857V36.5576C43.44 36.8631 43.2433 37.1418 42.9505 37.2511L39.9346 38.3766V34.6434H42.684C43.1013 34.6465 43.44 34.9783 43.44 35.3857ZM39.7446 17.2752C39.6081 17.442 39.4042 17.5383 39.1853 17.5395C39.184 17.5395 39.1829 17.5395 39.1815 17.5395C38.9641 17.5395 38.7607 17.4453 38.6232 17.2809L37.1453 15.5138H41.1862L39.7446 17.2752ZM34.9766 4.45869H43.2328V5.90524H34.9766V4.45869ZM37.389 1.50557H40.8205C41.8223 1.50557 42.6832 2.10398 43.0473 2.95312H35.1621C35.5263 2.10398 36.3872 1.50557 37.389 1.50557ZM34.9766 7.41081H43.2328V10.4572C43.2328 12.415 41.5984 14.0078 39.5895 14.0078H38.6199C36.611 14.0078 34.9766 12.415 34.9766 10.4572V7.41081ZM9.38347 3.85656C9.38347 2.56027 10.4657 1.50557 11.7958 1.50557H15.2274C16.5575 1.50557 17.6396 2.56027 17.6396 3.85656V5.90524H9.38347V3.85656ZM9.38347 7.41081H17.6396V10.4572C17.6396 12.415 16.0052 14.0078 13.9963 14.0078H13.0268C11.0178 14.0078 9.38347 12.415 9.38347 10.4572V7.41081ZM10.25 34.6434H12.7966V38.7185H10.25V34.6434ZM17.0909 34.6434C17.5082 34.6465 17.8469 34.9783 17.8469 35.3858V36.5577C17.8469 36.8632 17.6502 37.1419 17.3574 37.2512L14.3415 38.3767V34.6435L17.0909 34.6434ZM24.9031 38.7184H17.7454C18.7017 38.4121 19.3917 37.551 19.3917 36.5576V35.3857C19.3917 35.1256 19.3456 34.8759 19.2619 34.6433H22.8948C23.3215 34.6433 23.6672 34.3064 23.6672 33.8905C23.6672 33.4747 23.3215 33.1377 22.8948 33.1377H21.6074V22.594C21.6074 22.1781 21.2617 21.8412 20.835 21.8412C20.4083 21.8412 20.0626 22.1781 20.0626 22.594V33.1378H7.07545V22.594C7.07545 22.1781 6.72971 21.8412 6.30302 21.8412C5.87633 21.8412 5.53059 22.1781 5.53059 22.594V33.1378H4.24321C3.81652 33.1378 3.47078 33.4748 3.47078 33.8906C3.47078 34.3065 3.81652 34.6434 4.24321 34.6434H8.70517V38.7185H2.2349C1.85445 38.7185 1.54486 38.4168 1.54486 38.046V25.1363C1.54486 19.9337 6.15214 17.7478 10.1327 15.5137H12.7966V22.5941C12.7966 23.0099 13.1423 23.3468 13.569 23.3468H15.4965C15.9232 23.3468 16.2689 23.0099 16.2689 22.5941C16.2689 22.1782 15.9232 21.8413 15.4965 21.8413H14.3414V15.5137H16.9915C18.63 16.4299 20.2629 17.3285 21.8393 18.3424C24.1897 19.8526 25.5931 22.3924 25.5931 25.1364V38.0461C25.5932 38.4167 25.2836 38.7184 24.9031 38.7184ZM27.138 38.0459V25.1362C27.138 22.2973 28.6871 19.7095 31.1237 18.1931V33.1378H29.8364C29.4097 33.1378 29.0639 33.4748 29.0639 33.8906C29.0639 34.3065 29.4097 34.6434 29.8364 34.6434H38.3897V38.7183L27.8281 38.7185C27.4476 38.7184 27.138 38.4167 27.138 38.0459ZM31.4907 49.3794V45.624H38.485V49.5187H31.6336C31.5548 49.5187 31.4907 49.4563 31.4907 49.3794ZM47.0242 49.3794C47.0242 49.4563 46.9601 49.5187 46.8812 49.5187H40.0299V45.624H47.0242V49.3794ZM49.1373 43.9505C49.1453 44.0497 49.0987 44.1057 48.9975 44.1185H29.5173C29.4161 44.1057 29.3694 44.0497 29.3775 43.9505L30.1809 40.224H48.334L49.1373 43.9505ZM51.1863 38.0459C51.1863 38.4167 50.8767 38.7184 50.4963 38.7184L43.339 38.7182C44.2952 38.4119 44.9848 37.5507 44.9848 36.5576V35.3857C44.9848 35.1256 44.9388 34.8759 44.8551 34.6433H48.488C48.9146 34.6433 49.2604 34.3064 49.2604 33.8905C49.2604 33.4747 48.9146 33.1377 48.488 33.1377H47.2006V18.1931C49.6383 19.7108 51.1863 22.2969 51.1863 25.1362V38.0459Z" fill="#184D47"/>
</svg>
