<svg width="53" height="50" viewBox="0 0 53 50" fill="none" xmlns="http://www.w3.org/2000/svg">
<path d="M30.0778 22.7993C35.9137 22.7993 40.6617 18.1722 40.6617 12.4844C40.6617 12.3814 40.6602 12.2787 40.6572 12.1764C40.6446 11.7656 40.2967 11.4429 39.8713 11.4545C39.4497 11.4667 39.1181 11.8096 39.1305 12.2204C39.1332 12.3081 39.1345 12.3962 39.1345 12.4844C39.1345 17.3513 35.0717 21.3108 30.0779 21.3108C25.084 21.3108 21.0211 17.3513 21.0211 12.4844C21.0211 7.6176 25.0839 3.65814 30.0779 3.65814C33.7552 3.65814 37.041 5.79747 38.4487 9.10848C38.61 9.48826 39.0568 9.66826 39.4464 9.51109C39.836 9.35382 40.021 8.91845 39.8596 8.53868C38.2147 4.66968 34.3751 2.16974 30.0779 2.16974C24.2418 2.16974 19.4939 6.79689 19.4939 12.4845C19.4938 18.1722 24.2418 22.7993 30.0778 22.7993Z" fill="#184D47"/>
<path d="M30.0728 7.18719C29.651 7.18719 29.3091 7.5203 29.3091 7.93145V10.6872C29.3091 11.7181 30.1696 12.5568 31.2275 12.5568C32.2854 12.5568 33.146 11.7181 33.146 10.6872V10.4683C33.146 10.0573 32.8041 9.72407 32.3823 9.72407C31.9605 9.72407 31.6186 10.0572 31.6186 10.4683V10.6872C31.6186 10.8973 31.4431 11.0684 31.2274 11.0684C31.0118 11.0684 30.8362 10.8973 30.8362 10.6872V7.93145C30.8364 7.5203 30.4946 7.18719 30.0728 7.18719Z" fill="#184D47"/>
<path d="M25.3135 11.7226C24.8917 11.7226 24.5498 12.0558 24.5498 12.4669V12.6857C24.5498 13.7167 25.4105 14.5554 26.4683 14.5554C27.5262 14.5554 28.3867 13.7166 28.3867 12.6857V7.93145C28.3867 7.5204 28.0448 7.18719 27.623 7.18719C27.2013 7.18719 26.8594 7.5203 26.8594 7.93145V12.6857C26.8594 12.8959 26.6838 13.067 26.4682 13.067C26.2525 13.067 26.0769 12.8959 26.0769 12.6857V12.4669C26.0772 12.0559 25.7353 11.7226 25.3135 11.7226Z" fill="#184D47"/>
<path d="M32.2284 17.7612C32.3426 17.7749 32.4584 17.7816 32.5747 17.7816C33.2369 17.7816 33.915 17.5653 34.4082 17.1857C35.4759 16.3639 35.8914 14.8625 35.3962 13.6157C35.2441 13.2324 34.8021 13.0417 34.4084 13.1902C34.0151 13.3385 33.8197 13.7695 33.9719 14.1529C34.2271 14.7957 34.0077 15.5973 33.4616 16.0176C33.1983 16.2203 32.7776 16.3267 32.4139 16.2838C32.2521 16.2645 32.0313 16.2064 31.8986 16.0392C31.6401 15.714 31.1605 15.6548 30.8272 15.9063C30.4937 16.158 30.4327 16.6255 30.6908 16.9505C31.0461 17.3974 31.592 17.6853 32.2284 17.7612Z" fill="#184D47"/>
<path d="M29.2292 14.703C29.4401 15.0589 29.9071 15.1809 30.2723 14.9754C30.6375 14.7699 30.7628 14.3148 30.5519 13.9588C30.341 13.6029 29.874 13.481 29.5087 13.6864C29.1434 13.892 29.0183 14.3471 29.2292 14.703Z" fill="#184D47"/>
<path d="M32.1828 13.6865C31.8175 13.892 31.6923 14.3471 31.9032 14.7032C32.1141 15.0591 32.5811 15.1811 32.9463 14.9756C33.3115 14.7701 33.4366 14.315 33.2259 13.9589C33.0151 13.6029 32.548 13.481 32.1828 13.6865Z" fill="#184D47"/>
<path d="M10.8473 5.74021C13.4548 6.86999 13.838 9.25138 13.8523 9.34838C13.9034 9.71773 14.2269 9.99335 14.6092 9.99335C14.9915 9.99335 15.315 9.71763 15.3661 9.34838C15.3694 9.32386 15.7353 6.88231 18.3712 5.74021C18.6469 5.62077 18.8247 5.35429 18.8247 5.0601C18.8247 4.76601 18.647 4.49953 18.3712 4.37999C15.7637 3.25031 15.3805 0.868921 15.3661 0.771918C15.315 0.402473 14.9915 0.126953 14.6092 0.126953C14.2269 0.126953 13.9034 0.402572 13.8523 0.771918C13.849 0.796442 13.4831 3.238 10.8473 4.37999C10.5716 4.49953 10.3938 4.76591 10.3938 5.0601C10.3938 5.35429 10.5715 5.62067 10.8473 5.74021ZM14.6092 2.98998C15.0097 3.67704 15.6145 4.42963 16.5228 5.0602C15.6145 5.69077 15.0097 6.44346 14.6092 7.13052C14.2087 6.44346 13.6039 5.69087 12.6956 5.0602C13.604 4.42953 14.2087 3.67704 14.6092 2.98998Z" fill="#184D47"/>
<path d="M51.8473 31.0333C51.0994 29.4299 49.1886 28.66 47.4975 29.2808C47.4902 29.2834 45.5225 30.074 45.5225 30.074C45.5819 29.5945 45.5192 29.1055 45.3296 28.644C44.7532 27.2407 43.1416 26.4927 41.6607 26.9409C41.6461 26.9454 31.758 30.5805 31.758 30.5805C31.673 30.0179 31.4413 29.4794 31.075 29.0215C30.0804 27.7774 28.3079 27.3861 26.86 28.0916L18.8723 31.984L15.8541 31.3197C15.8342 31.3153 15.8142 31.3117 15.7939 31.3089C12.9513 30.9135 10.5054 32.4796 9.2455 33.5064V31.2871C9.2455 30.5193 8.60458 29.8947 7.81666 29.8947H1.42883C0.640912 29.8945 0 30.5191 0 31.2869V48.4121C0 49.18 0.640912 49.8046 1.42883 49.8046H7.81666C8.60448 49.8046 9.2455 49.18 9.2455 48.4121V47.3114H12.4898C14.1525 47.3114 15.861 47.6868 17.5133 48.0498C19.2384 48.4287 20.9969 48.8152 22.7885 48.8152C24.1384 48.8152 25.507 48.5957 26.8942 47.9887C28.6278 47.2301 34.1285 44.1936 39.4481 41.2572C44.1359 38.6695 48.5638 36.2252 50.2177 35.4413C51.9101 34.6393 52.6259 32.7031 51.8473 31.0333ZM31.574 32.2389L42.133 28.3565C42.8532 28.1495 43.6317 28.5156 43.9117 29.197C44.0589 29.5555 44.0527 29.9479 43.8941 30.3018C43.7589 30.6031 43.5271 30.8435 43.233 30.9938L32.2779 35.3958C31.7691 35.581 31.2357 35.6751 30.6926 35.6751H27.0959L30.1261 33.9217C30.7955 33.5344 31.3027 32.9381 31.574 32.2389ZM49.5498 34.1029C47.8528 34.9072 43.4048 37.3624 38.6956 39.9621C33.4065 42.8816 27.9373 45.9006 26.2687 46.6309C23.505 47.8405 20.7577 47.2368 17.8494 46.5978C16.1156 46.2168 14.3228 45.823 12.49 45.823H9.2455V42.9096C9.2455 42.4985 8.9036 42.1653 8.48182 42.1653C8.06005 42.1653 7.71815 42.4984 7.71815 42.9096V48.3163H1.52735V31.383H7.71825V39.3957C7.71825 39.8068 8.06015 40.14 8.48192 40.14C8.9037 40.14 9.2456 39.8068 9.2456 39.3957V35.4994C9.33026 35.4584 9.40718 35.4024 9.47156 35.3331C9.49948 35.3031 12.2917 32.3449 15.5488 32.7785L18.8019 33.4943C18.9738 33.5323 19.154 33.5109 19.3116 33.4341L27.5432 29.423C28.3425 29.0335 29.3212 29.2494 29.8704 29.9364C30.2026 30.3518 30.3357 30.887 30.2355 31.4044C30.1352 31.922 29.8112 32.373 29.3465 32.6419L20.0634 38.0136C19.7007 38.2235 19.5813 38.6801 19.7967 39.0334C20.012 39.387 20.4806 39.5035 20.8431 39.2935L24.5237 37.1637H30.6927C31.4241 37.1637 32.142 37.0364 32.8266 36.7851C32.8339 36.7825 32.8413 36.7796 32.8486 36.7766L48.0459 30.6702C48.9846 30.3312 50.0421 30.7602 50.4567 31.6495C50.8901 32.5787 50.4919 33.6564 49.5498 34.1029Z" fill="#184D47"/>
<path d="M41.7205 21.3905C44.8227 22.7344 45.2739 25.568 45.2913 25.6847C45.3423 26.0541 45.6657 26.3297 46.048 26.3297C46.4303 26.3297 46.7538 26.054 46.8048 25.6847C46.8088 25.6555 47.2446 22.7468 50.3755 21.3905C50.6511 21.271 50.8289 21.0045 50.8289 20.7103C50.8289 20.4162 50.6512 20.1498 50.3755 20.0302C47.2732 18.6862 46.8221 15.8526 46.8048 15.7359C46.7537 15.3666 46.4303 15.0909 46.048 15.0909C45.6657 15.0909 45.3422 15.3666 45.2913 15.7359C45.2872 15.7651 44.8515 18.6738 41.7205 20.0302C41.4448 20.1498 41.2671 20.4163 41.2671 20.7103C41.2671 21.0044 41.4449 21.271 41.7205 21.3905ZM46.0481 18.0496C46.5228 18.9208 47.2836 19.9107 48.4942 20.7104C47.2836 21.5102 46.5228 22.4999 46.0481 23.3711C45.5734 22.4999 44.8125 21.5102 43.602 20.7104C44.8124 19.9106 45.5734 18.9208 46.0481 18.0496Z" fill="#184D47"/>
</svg>
