<svg width="788" height="668" viewBox="0 0 788 668" fill="none" xmlns="http://www.w3.org/2000/svg">
<g opacity="0.1">
<path d="M377.255 235.089C386.839 231.002 397.598 230.621 407.446 234.02C417.295 237.419 425.529 244.355 430.551 253.483" stroke="#4B779D" stroke-width="2" stroke-linecap="round"/>
<path d="M357.04 294.199C352.246 285.6 350.623 275.591 352.455 265.918C354.288 256.245 359.458 247.522 367.065 241.273" stroke="#4B779D" stroke-width="2" stroke-linecap="round"/>
<path d="M368.889 239.857C370.683 238.54 372.58 237.369 374.56 236.353" stroke="#4B779D" stroke-width="2" stroke-linecap="round"/>
<path d="M425.097 301.703C419.395 308.097 411.874 312.595 403.544 314.594C395.214 316.594 386.471 315.999 378.488 312.89" stroke="#4B779D" stroke-width="2" stroke-linecap="round"/>
<path d="M425.097 301.703C419.395 308.097 411.874 312.595 403.544 314.594C395.214 316.594 386.471 315.999 378.488 312.89" stroke="#4B779D" stroke-width="2" stroke-linecap="round"/>
<path d="M432.419 257.33C433.702 260.353 434.625 263.516 435.171 266.755" stroke="#4B779D" stroke-width="2" stroke-linecap="round"/>
<path d="M374.651 311.169C368.182 307.871 362.679 302.952 358.677 296.893" stroke="#4B779D" stroke-width="2" stroke-linecap="round"/>
<path d="M435.666 271.004C436.326 281.119 433.306 291.131 427.165 299.195" stroke="#4B779D" stroke-width="2" stroke-linecap="round"/>
<g opacity="0.8">
<path d="M350.331 207.143C366.844 196.38 386.766 192.135 406.231 195.233C425.696 198.33 443.317 208.549 455.672 223.906" stroke="#4B779D" stroke-width="2" stroke-linecap="round"/>
<path d="M332.086 323.916C320.329 309.47 314.017 291.354 314.253 272.73C314.489 254.106 321.257 236.155 333.377 222.012" stroke="#4B779D" stroke-width="2" stroke-linecap="round"/>
<path d="M336.309 218.775C339.221 215.733 342.369 212.927 345.724 210.384" stroke="#4B779D" stroke-width="2" stroke-linecap="round"/>
<path d="M461.352 315.539C452.829 329.325 440.295 340.176 425.431 346.638C410.567 353.1 394.083 354.864 378.188 351.693" stroke="#4B779D" stroke-width="2" stroke-linecap="round"/>
<path d="M461.352 315.539C452.829 329.325 440.295 340.176 425.431 346.638C410.567 353.1 394.083 354.864 378.188 351.693" stroke="#4B779D" stroke-width="2" stroke-linecap="round"/>
<path d="M460.417 230.46C463.799 235.671 466.559 241.261 468.64 247.115" stroke="#4B779D" stroke-width="2" stroke-linecap="round"/>
<path d="M370.474 349.748C357.338 345.728 345.468 338.371 336.021 328.397" stroke="#4B779D" stroke-width="2" stroke-linecap="round"/>
<path d="M470.959 254.87C475.51 273.499 473.174 293.145 464.381 310.187" stroke="#4B779D" stroke-width="2" stroke-linecap="round"/>
</g>
<g opacity="0.6">
<path d="M312.02 186.401C333.675 166.139 362.086 154.644 391.738 154.148C421.39 153.652 450.17 164.19 472.491 183.717" stroke="#4B779D" stroke-width="2" stroke-linecap="round"/>
<path d="M315.494 364.2C294.298 345.866 280.212 320.671 275.696 293.013C271.179 265.354 276.519 236.987 290.782 212.863" stroke="#4B779D" stroke-width="2" stroke-linecap="round"/>
<path d="M294.281 207.301C297.8 202.033 301.732 197.052 306.04 192.407" stroke="#4B779D" stroke-width="2" stroke-linecap="round"/>
<path d="M504.848 318.013C495.82 340.667 480.083 360.021 459.747 373.479C439.41 386.938 415.445 393.858 391.064 393.313" stroke="#4B779D" stroke-width="2" stroke-linecap="round"/>
<path d="M504.848 318.013C495.82 340.667 480.083 360.021 459.747 373.479C439.41 386.938 415.445 393.858 391.064 393.313" stroke="#4B779D" stroke-width="2" stroke-linecap="round"/>
<path d="M481.233 192.188C487.607 199.027 493.157 206.589 497.77 214.719" stroke="#4B779D" stroke-width="2" stroke-linecap="round"/>
<path d="M379.125 392.447C358.61 389.922 339.099 382.123 322.496 369.811" stroke="#4B779D" stroke-width="2" stroke-linecap="round"/>
<path d="M503.232 225.604C514.843 252.019 516.515 281.74 507.938 309.29" stroke="#4B779D" stroke-width="2" stroke-linecap="round"/>
</g>
<g opacity="0.5">
<path d="M247.539 199.557C265.933 163.307 297.138 135.182 335.098 120.642C373.059 106.102 415.067 106.184 452.971 120.871" stroke="#4B779D" stroke-width="2" stroke-linecap="round"/>
<path d="M335.367 426.937C299.471 413.26 269.517 387.412 250.733 353.904C231.949 320.397 225.528 281.357 232.591 243.598" stroke="#4B779D" stroke-width="2" stroke-linecap="round"/>
<path d="M234.489 234.792C236.552 226.357 239.282 218.099 242.653 210.097" stroke="#4B779D" stroke-width="2" stroke-linecap="round"/>
<path d="M557.607 278.678C556.599 312.09 545.403 344.395 525.518 371.264C505.633 398.133 478.01 418.282 446.351 429.009" stroke="#4B779D" stroke-width="2" stroke-linecap="round"/>
<path d="M557.607 278.678C556.599 312.09 545.403 344.395 525.518 371.264C505.633 398.133 478.01 418.282 446.351 429.009" stroke="#4B779D" stroke-width="2" stroke-linecap="round"/>
<path d="M468.204 127.683C479.619 133.503 490.313 140.642 500.066 148.952" stroke="#4B779D" stroke-width="2" stroke-linecap="round"/>
<path d="M430.568 433.491C402.96 439.855 374.173 438.957 347.016 430.882" stroke="#4B779D" stroke-width="2" stroke-linecap="round"/>
<path d="M512.204 160.411C539.543 188.99 555.63 226.489 557.498 265.994" stroke="#4B779D" stroke-width="2" stroke-linecap="round"/>
</g>
<g opacity="0.4">
<path d="M194.872 358.55C173.843 309.241 171.883 253.877 189.372 203.204C206.861 152.531 242.553 110.162 289.52 84.321" stroke="#4B779D" stroke-width="2" stroke-linecap="round"/>
<path d="M499.022 462.568C454.777 487.237 403.274 495.586 353.502 486.158C303.73 476.73 258.848 450.124 226.69 410.983" stroke="#4B779D" stroke-width="2" stroke-linecap="round"/>
<path d="M219.405 401.601C212.632 392.367 206.604 382.609 201.377 372.42" stroke="#4B779D" stroke-width="2" stroke-linecap="round"/>
<path d="M537.633 112.386C570.532 141.725 593.677 180.42 603.964 223.284C614.252 266.147 611.191 311.132 595.192 352.207" stroke="#4B779D" stroke-width="2" stroke-linecap="round"/>
<path d="M537.633 112.386C570.532 141.725 593.677 180.42 603.964 223.284C614.252 266.147 611.191 311.132 595.192 352.207" stroke="#4B779D" stroke-width="2" stroke-linecap="round"/>
<path d="M309.314 74.7083C324.87 68.1099 341.145 63.3579 357.808 60.5497" stroke="#4B779D" stroke-width="2" stroke-linecap="round"/>
<path d="M586.34 371.95C569.367 405.235 544.058 433.554 512.881 454.144" stroke="#4B779D" stroke-width="2" stroke-linecap="round"/>
<path d="M379.673 58.001C431.718 54.608 483.235 70.1435 524.728 101.744" stroke="#4B779D" stroke-width="2" stroke-linecap="round"/>
</g>
<g opacity="0.25">
<path d="M660.186 354.708C640.109 420.774 596.204 477.026 536.992 512.546C477.779 548.066 407.481 560.321 339.742 546.932" stroke="#4B779D" stroke-width="2" stroke-linecap="round"/>
<path d="M446.195 0.245414C510.278 12.5367 568.01 46.9406 609.316 97.453C650.622 147.965 672.878 211.379 672.202 276.626" stroke="#4B779D" stroke-width="2" stroke-linecap="round"/>
<path d="M671.623 291.916C670.66 306.635 668.529 321.254 665.251 335.635" stroke="#4B779D" stroke-width="2" stroke-linecap="round"/>
<path d="M118.158 313.811C109.987 257.622 119.188 200.278 144.527 149.465C169.865 98.6524 210.131 56.7995 259.926 29.5161" stroke="#4B779D" stroke-width="2" stroke-linecap="round"/>
<path d="M118.158 313.811C109.987 257.622 119.188 200.278 144.527 149.465C169.865 98.6524 210.131 56.7995 259.926 29.5161" stroke="#4B779D" stroke-width="2" stroke-linecap="round"/>
<path d="M312.252 540.028C291.439 533.66 271.445 524.873 252.679 513.848" stroke="#4B779D" stroke-width="2" stroke-linecap="round"/>
<path d="M285.007 17.3641C329.314 -1.42665 377.734 -8.41432 425.545 -2.91745" stroke="#4B779D" stroke-width="2" stroke-linecap="round"/>
<path d="M228.993 498.259C174.83 458.516 136.859 400.532 122.081 334.997" stroke="#4B779D" stroke-width="2" stroke-linecap="round"/>
</g>
<g opacity="0.1">
<path d="M253.437 -55.2458C335.009 -90.034 426.596 -93.2765 510.424 -64.3439C594.252 -35.4114 664.342 23.6326 707.091 101.329" stroke="#4B779D" stroke-width="2" stroke-linecap="round"/>
<path d="M81.3614 447.906C40.5515 374.712 26.7396 289.512 42.336 207.174C57.9324 124.837 101.947 50.5898 166.698 -2.60853" stroke="#4B779D" stroke-width="2" stroke-linecap="round"/>
<path d="M660.664 511.781C612.128 566.205 548.116 604.493 477.206 621.512C406.297 638.53 331.88 633.467 263.93 607" stroke="#4B779D" stroke-width="2" stroke-linecap="round"/>
<path d="M660.664 511.781C612.128 566.205 548.116 604.493 477.206 621.512C406.297 638.53 331.88 633.467 263.93 607" stroke="#4B779D" stroke-width="2" stroke-linecap="round"/>
<path d="M722.993 134.075C733.909 159.808 741.77 186.733 746.415 214.297" stroke="#4B779D" stroke-width="2" stroke-linecap="round"/>
<path d="M231.269 592.356C176.206 564.278 129.359 522.409 95.297 470.833" stroke="#4B779D" stroke-width="2" stroke-linecap="round"/>
<path d="M750.632 250.47C756.245 336.567 730.544 421.791 678.269 490.431" stroke="#4B779D" stroke-width="2" stroke-linecap="round"/>
</g>
</g>
</svg>
